<?xml version="1.0" encoding="UTF-8" standalone="no"?>
<svg
   version="1.1"
   width="376.20334"
   height="400.03195"
   id="svg7"
   xmlns="http://www.w3.org/2000/svg"
   xmlns:svg="http://www.w3.org/2000/svg">
  <defs
     id="defs7" />
  <g
     id="g10"
     transform="translate(-35.95583,-55.975452)">
    <path
       d="M 251.29332,56.103067 V 361.05297 L 115.05749,456.00743 251.29332,56.103067"
       id="path2-0"
       style="clip-rule:evenodd;fill:#ffffff;fill-opacity:1;fill-rule:evenodd;stroke-width:1.87186;stroke-linejoin:round;stroke-miterlimit:2" />
    <path
       d="M 184.09829,180.11722 155.99224,267.91735 35.955828,180.11722 H 184.09829"
       id="path1-9"
       style="clip-rule:evenodd;fill:#ffffff;fill-opacity:1;fill-rule:evenodd;stroke-width:1.83752;stroke-linejoin:round;stroke-miterlimit:2" />
  </g>
  <g
     id="g9"
     transform="translate(-35.95583,-55.975452)">
    <path
       d="m 259.97622,55.975452 h 40 c 3.49674,9.854562 3.84243,21.508366 4.46582,31.805923 73.84697,14.987025 83.53418,75.370735 83.53418,132.194075 4.09208,0.60871 5.18128,-1.16577 7.95546,-3.90353 18.60847,-1.53951 16.20222,4.03065 16.04454,43.9035 -28.25603,47.52289 -28,48 -28,48 v 44 l -4,8 -32,36 -24,20 h -64 v -20 l 4,-4 h 44 l 8,12 h 4 c 51.90654,-56.23078 52,-56 52,-56 l 4,-8 v -21.5399 h -12 l -12,13.5399 h -12 l -64,-68 h -16 v -24 h 28 l 16,4 16,16 v 40 h 4 l 4,-8 v -36 c 16.19083,-12.19419 16,-12 16,-12 h 24 c 5.32269,0.47447 4,9.73509 4,16 -23.71861,18.86564 -20,23.5293 -20,52 20.18341,0.12329 33.61043,-27.99058 48,-48 v -36 c 0,0 -4.40233,-1.01254 -6.11475,3.93178 l -13.88525,0.0682 c 0.8945,-91.18712 -26.26433,-137.588063 -116,-133.109456 v 5.109456 c 57.12403,-0.72681 92.1913,13.83594 92,76 v 12 12 l 12,8 v 20 h -24 l -12,-12 -4,-24 v -44 l -4,-20 h -4 v 60 l -4,24 -16,16 -16,4 h -24 L 259.908,90.338224 c 17.78047,-0.35112 32.81945,-1.991618 32.06822,-6.362772 -1.36799,-23.559886 -32,-20 -32,-20 z"
       fill="#ffffff"
       id="path2-8" />
    <path
       d="m 294.84137,307.90723 9.13485,0.0682 c 8.31403,13.48582 18.93081,27.22887 32,35.88842 l -20,20.11158 -9.29871,-0.0965 -2.70129,-7.90353 c -9.17235,-2.44065 -12.44584,-4.89169 -16,-12 h -28 v -32 h 32 z"
       fill="#ffffff"
       id="path4-8" />
    <path
       d="m 259.97622,351.97545 h 28 l 4,4 v 24 l -4,4 h -24 l -4,-4 z"
       fill="#ffffff"
       id="path5-2" />
    <path
       d="m 259.97622,291.97545 h 24 l 4,4 v 8 h -28 z"
       fill="#ffffff"
       id="path6-4" />
    <path
       d="m 259.97622,267.97545 h 12 l 8,8 v 8 h -20 z"
       fill="#ffffff"
       id="path7-5" />
  </g>
</svg>
