<svg viewBox="0 0 512 512" xmlns="http://www.w3.org/2000/svg" xml:space="preserve" style="fill-rule:evenodd;clip-rule:evenodd;stroke-linejoin:round;stroke-miterlimit:2">
  <desc>Traced by Dogo314</desc>
  <path style="fill:none" d="M0 0h512v512H0z"/>
    <path d="m773 1257-22 22-14-14 22-22h14zm-35 16 5 5v9l-2 2-14-14 2-2zm-2 19-10 10v-6l-8 2 2-8h-6l10-10 2 2-3 11 11-3zm19-53-22 22-14-14 22-22h14zm-35 16 5 5v9l-2 2-14-14 2-2zm-2 19-10 10v-6l-8 2 2-8h-6l10-10 2 2-3 11 11-3z" style="fill:#fff" transform="translate(-4627.948 -8145.455)scale(6.64935)"/>
</svg>
