<svg xmlns="http://www.w3.org/2000/svg" xml:space="preserve" width="300" height="300" viewBox="0 0 300 300.00001"><path d="M150 0c-38.108 0-69 30.892-69 69s30.892 69 69 69 69-30.892 69-69-30.892-69-69-69m91.98 30.008c4.962 12.195 5.518 25.278 5.52 38.492 0 55.228-43.652 100-97.5 100s-97.5-44.772-97.5-100c.066-13.069.628-25.997 5.543-38.055C20.381 58.67.15 102.935 0 150c0 82.843 67.157 150 150 150s150-67.157 150-150c-.007-47.214-20.243-91.67-58.02-119.992" style="display:inline;opacity:1;fill:#a419f8;fill-opacity:1;fill-rule:nonzero;stroke-width:0;stroke-dasharray:none"/></svg>