<svg viewBox="0 0 128 128" xmlns="http://www.w3.org/2000/svg" xml:space="preserve" style="fill-rule:evenodd;clip-rule:evenodd;stroke-linejoin:round;stroke-miterlimit:2">
  <desc>Traced by Dogo314</desc>
  <path style="fill:none" d="M744 2382h134v134H744z" transform="translate(-710.687 -2275.343)scale(.95522)"/>
  <path d="M927.599 2397.868c5.164 4.753 8.401 11.567 8.401 19.132 0 6.306-2.25 12.09-5.989 16.594l-1.44-7.773-2.089 11.282a26 26 0 0 1-3.319 2.319l-2.949-15.922-3.446 18.609q-1.365.368-2.783.587L910 2421.179l-3.985 21.517a26 26 0 0 1-2.783-.587l-3.446-18.609-2.949 15.922a26 26 0 0 1-3.319-2.319l-2.089-11.282-1.44 7.773A25.9 25.9 0 0 1 884 2417c0-7.565 3.237-14.379 8.401-19.132a18 18 0 0 0-.508 4.275c0 9.993 8.113 18.107 18.107 18.107s18.107-8.114 18.107-18.107c0-1.473-.176-2.904-.508-4.275M910 2391c6.662 0 12.071 5.409 12.071 12.071 0 6.663-5.409 12.072-12.071 12.072s-12.071-5.409-12.071-12.072S903.338 2391 910 2391" style="fill:#fff" transform="translate(-710.687 -2275.343)scale(.95522) translate(-1240.875 -2999.823)scale(2.2548)"/>
</svg>
