<svg viewBox="0 0 128 128" xmlns="http://www.w3.org/2000/svg" xml:space="preserve" style="fill-rule:evenodd;clip-rule:evenodd;stroke-linejoin:round;stroke-miterlimit:2">
  <desc>Traced by Dogo314</desc>
  <path style="fill:none" d="M744 2382h134v134H744z" transform="translate(-710.687 -2275.343)scale(.95522)"/>
  <path d="M903.99 2442.301c-11.456-2.716-19.99-13.02-19.99-25.301 0-2.743.426-5.388 1.215-7.871 2.252 9.233 9.535 16.504 18.775 18.739zm-17.522-36.363a26.1 26.1 0 0 1 5.933-8.07 18 18 0 0 0-.508 4.275c0 9.993 8.113 18.107 18.107 18.107s18.107-8.114 18.107-18.107c0-1.473-.176-2.904-.508-4.275a26.1 26.1 0 0 1 5.933 8.07c-1.173 9.722-8.242 17.639-17.522 20.068q-.89.233-1.806.397v16.258A26 26 0 0 1 910 2443c-1.431 0-2.836-.116-4.204-.339v-16.258a23 23 0 0 1-1.806-.397c-9.28-2.429-16.349-10.346-17.522-20.068m48.317 3.191A26 26 0 0 1 936 2417c0 12.281-8.534 22.585-19.99 25.301v-14.433c9.24-2.235 16.523-9.506 18.775-18.739m-16.454-14.79a12.04 12.04 0 0 1 3.74 8.732c0 6.663-5.409 12.072-12.071 12.072s-12.071-5.409-12.071-12.072c0-3.433 1.436-6.533 3.74-8.732v8.732c0 4.599 3.733 8.332 8.331 8.332s8.331-3.733 8.331-8.332zm-14.857-1.422A12 12 0 0 1 910 2391c2.403 0 4.644.704 6.526 1.917v10.154a6.53 6.53 0 0 1-6.526 6.526 6.53 6.53 0 0 1-6.526-6.526z" style="fill:#fff" transform="translate(-710.687 -2275.343)scale(.95522) translate(-1240.875 -2999.823)scale(2.2548)"/>
</svg>
