<svg viewBox="0 0 512 512" xmlns="http://www.w3.org/2000/svg" xml:space="preserve" style="fill-rule:evenodd;clip-rule:evenodd;stroke-linejoin:round;stroke-miterlimit:2">
  <desc>Traced by Dogo314</desc>
  <path d="M202 1321v13l-11-6zm0 18v8h-8l-5-8v-5zm-13-15-3 7-10-5 5-10-1-8c-2 0-15 18-15 35-8-13-2-40 18-47l3 4v14l-2 7zm15-11-4-2-6 10q-1.5-7.5 0-15s-4-2-4-9 5-12 14-12 14 5 14 12-4 9-4 9q1.5 7.5 0 15l-6-10zm2 8 11 7-11 6zm0 18 13-5v5l-5 8h-8zm13-15 5-3-2-7v-14l3-4c20 7 26 34 18 47 0-17-13-35-15-35l-1 8 5 10-10 5z" style="fill:#fff" transform="translate(-879.304 -7151.304)scale(5.56522)"/>
  <path d="m168 1296-7-5-1-6 6 1zm72 2 5-7 5 2v6zm-69 31 5 2v5l-5-2zm42 47.77c-2.911.151-5.92.23-9 .23-25.388 0-46-5.377-46-12 0-2.336 2.565-4.518 7-6.363V1356l2-2 12 8-5-12 2-7 10-2 4 8-9 7 4 7-7 7 1 3 14-7-5-8 7-7 9-2 8 2 12 7 1 10 2 2 2-2 1-8 10-4-12-2-9-7 3-6 10 2 2 9 8 2 1.37 4.794c4.207 1.811 6.63 3.935 6.63 6.206 0 5.029-11.883 9.339-28.718 11.123L213 1366z" style="fill:#6a6a6a" transform="translate(-879.304 -7151.304)scale(5.56522)"/>
</svg>
