<?xml version="1.0" encoding="UTF-8" standalone="no"?>
<!DOCTYPE svg PUBLIC "-//W3C//DTD SVG 1.1//EN" "http://www.w3.org/Graphics/SVG/1.1/DTD/svg11.dtd">
<svg width="100%" height="100%" viewBox="0 0 128 128" version="1.1" xmlns="http://www.w3.org/2000/svg" xmlns:xlink="http://www.w3.org/1999/xlink" xml:space="preserve" xmlns:serif="http://www.serif.com/" style="fill-rule:evenodd;clip-rule:evenodd;stroke-linejoin:round;stroke-miterlimit:2;">
    <g transform="matrix(1,0,0,1,-700,-2530)">
        <g id="Spore-Burst-Strain-Icon" serif:id="Spore Burst Strain Icon" transform="matrix(0.955224,0,0,0.955224,-10.686567,254.656716)">
            <rect x="744" y="2382" width="134" height="134" style="fill:none;"/>
            <g transform="matrix(1.046875,0,0,1.046875,11.1875,-266.59375)">
                <path d="M737.178,2589.121C737.457,2589.669 737.776,2590.195 738.128,2590.664C739.236,2592.141 740.681,2593 742,2593C743.462,2593 744.695,2592.229 745.572,2590.943C746.506,2589.573 747,2587.557 747,2586C747,2584.965 746.803,2584.136 746.555,2583.35C746.325,2582.621 746,2581.959 746,2581L746.001,2580.924C749.872,2578.098 754.505,2575.442 760.024,2572.955C760.008,2573.3 760,2573.648 760,2574C760,2576.168 760.492,2578.756 761.619,2580.49C762.622,2582.033 764.072,2583 766,2583C768.558,2583 770.985,2581.489 772.888,2579.115C775.402,2575.98 777,2571.378 777,2568C777,2567.549 777.021,2567.111 777.061,2566.684C783.801,2564.641 791.413,2562.746 800,2561C778,2621 740,2594 740,2636C740,2644.062 741,2646 745,2653C739,2648 728,2638 728,2618C728,2607.156 730.261,2597.53 737.178,2589.121ZM746,2555C747.57,2557.05 749,2560 749,2564C749,2573 744,2577 744,2581C744,2583 745,2584 745,2586C745,2588 744,2591 742,2591C740,2591 738,2587 738,2585C738,2574 747,2572 747,2564C747,2560.081 747,2558 746,2555ZM766,2581C763,2581 762,2577 762,2574C762,2556 785,2548 785,2540L785,2536C785,2536 788,2540 788,2542C788,2552 775,2556 775,2568C775,2573 771,2581 766,2581ZM781.729,2597.3C788.407,2610.418 779.511,2631.196 765,2637C768.876,2627.31 768.075,2617.62 761.635,2609.749C762.252,2609.453 762.877,2609.152 763.509,2608.842C769.214,2606.048 775.496,2602.797 781.729,2597.3ZM723,2591C725.208,2591 727,2592.792 727,2595C727,2597.208 725.208,2599 723,2599C720.792,2599 719,2597.208 719,2595C719,2592.792 720.792,2591 723,2591ZM790,2550C792.208,2550 794,2551.792 794,2554C794,2556.208 792.208,2558 790,2558C787.792,2558 786,2556.208 786,2554C786,2551.792 787.792,2550 790,2550ZM724.5,2576C725.88,2576 727,2577.12 727,2578.5C727,2579.88 725.88,2581 724.5,2581C723.12,2581 722,2579.88 722,2578.5C722,2577.12 723.12,2576 724.5,2576ZM735.5,2562C737.432,2562 739,2563.568 739,2565.5C739,2567.432 737.432,2569 735.5,2569C733.568,2569 732,2567.432 732,2565.5C732,2563.568 733.568,2562 735.5,2562ZM756,2564C757.104,2564 758,2564.896 758,2566C758,2567.104 757.104,2568 756,2568C754.896,2568 754,2567.104 754,2566C754,2564.896 754.896,2564 756,2564ZM762,2549C763.104,2549 764,2549.896 764,2551C764,2552.104 763.104,2553 762,2553C760.896,2553 760,2552.104 760,2551C760,2549.896 760.896,2549 762,2549ZM726.5,2546C727.88,2546 729,2547.12 729,2548.5C729,2549.88 727.88,2551 726.5,2551C725.12,2551 724,2549.88 724,2548.5C724,2547.12 725.12,2546 726.5,2546ZM793.5,2589C794.88,2589 796,2590.12 796,2591.5C796,2592.88 794.88,2594 793.5,2594C792.12,2594 791,2592.88 791,2591.5C791,2590.12 792.12,2589 793.5,2589ZM809,2564C810.104,2564 811,2564.896 811,2566C811,2567.104 810.104,2568 809,2568C807.896,2568 807,2567.104 807,2566C807,2564.896 807.896,2564 809,2564ZM808,2545C809.104,2545 810,2545.896 810,2547C810,2548.104 809.104,2549 808,2549C806.896,2549 806,2548.104 806,2547C806,2545.896 806.896,2545 808,2545ZM714,2562C715.104,2562 716,2562.896 716,2564C716,2565.104 715.104,2566 714,2566C712.896,2566 712,2565.104 712,2564C712,2562.896 712.896,2562 714,2562ZM746,2542C747.104,2542 748,2542.896 748,2544C748,2545.104 747.104,2546 746,2546C744.896,2546 744,2545.104 744,2544C744,2542.896 744.896,2542 746,2542ZM768,2534C769.104,2534 770,2534.896 770,2536C770,2537.104 769.104,2538 768,2538C766.896,2538 766,2537.104 766,2536C766,2534.896 766.896,2534 768,2534Z" style="fill:white;"/>
            </g>
        </g>
    </g>
</svg>
