<svg viewBox="0 0 512 512" xmlns="http://www.w3.org/2000/svg" xml:space="preserve" style="fill-rule:evenodd;clip-rule:evenodd;stroke-linejoin:round;stroke-miterlimit:2">
  <desc>Traced by Dogo314</desc>
  <path d="M190 713c-14 3-31 17-21 41-9-8-13-21-13-29s3-14 7-20c-4-6-6-12-4-25 4 9 7 12 13 14 0-9 6-16 12-21-4 9-2 19 6 23 8-4 10-14 6-23 6 5 12 12 12 21 6-2 9-5 13-14 2 13 0 19-4 25 4 6 7 12 7 20s-4 21-13 29c10-24-7-38-21-41m3.02 5.029c6.169 2.253 12.338 6.796 15.264 13.613 1.677 3.906 2.235 8.537 1.179 13.876-3.88-3.41-9.243-6.561-14.463-7.518 3.995-6.99 3.003-12.984-1.98-19.971m-6.04 0c-4.983 6.987-5.975 12.981-1.98 19.971-5.22.957-10.583 4.108-14.463 7.518-1.056-5.339-.498-9.97 1.179-13.876 2.926-6.817 9.095-11.36 15.264-13.613" style="fill:#fff" transform="translate(-950.555 -4254.025)scale(6.32099)"/>
</svg>
