<svg xmlns="http://www.w3.org/2000/svg" width="4285" height="4240" viewBox="0 0 4285 4240"><path d="M2194.606 755.095c-24.963 8.051-50.658 13.314-75.782 20.693-27.185 7.984-54.258 16.383-81.082 25.506-19.9 6.768-39.598 14.13-59.218 21.674-32.503 12.495-64.93 25.236-96.892 39.06-29.986 12.968-59.598 26.81-88.956 41.143-27 13.18-53.755 26.883-80.155 41.228a1999 1999 0 0 0-79.024 45.291c-27.378 16.535-54.36 33.737-80.975 51.473-27.206 18.13-54.213 36.6-80.425 56.14-27.575 20.555-54.36 42.174-80.763 64.214-29.644 24.742-58.913 49.975-87.138 76.323-27.613 25.777-54.305 52.552-80.345 79.916-19.264 20.243-38.006 41-56.102 62.293-27.11 31.898-53.56 64.406-78.55 97.991-25.403 34.14-49.365 69.364-72.472 105.099a1664 1664 0 0 0-51.497 85.077c-16.772 29.69-32.46 59.997-47.613 90.546-14.31 28.848-28.024 58.007-40.873 87.535-12.512 28.752-24.34 57.818-35.247 87.217-12.432 33.51-23.96 67.376-34.385 101.564-11.832 38.803-22.407 78.005-31.93 117.438-8.087 33.49-15.053 67.256-21.389 101.121-5.335 28.517-10.186 57.142-13.992 85.903-4.481 33.855-7.787 67.871-10.403 101.92-2.774 36.108-4.727 72.295-5.608 108.499-.984 40.426-1.061 80.9.36 121.314 1.494 42.483 4.531 84.924 8.58 127.24 3.755 39.24 8.668 78.38 14.564 117.355 3.743 24.743 10.353 48.862 13.204 73.901 18.97-16.884 38.25-34.402 57.832-51.078 17.04-14.513 34.324-28.75 51.899-42.61 37.197-29.336 74.954-57.978 113.298-85.798 19.39-14.069 39.129-27.66 59.023-41.007 26.364-17.689 53.054-34.898 79.946-51.776 14.138-8.873 28.433-17.497 42.788-26.014 17.074-10.13 34.282-20.034 51.545-29.837 19.438-11.037 38.841-22.148 58.585-32.627 36.156-19.189 72.672-37.721 109.607-55.36 29.96-14.308 60.256-27.924 90.807-40.92 41.116-17.493 82.548-34.292 124.432-49.857 41.151-15.293 82.694-29.579 124.574-42.743 47.888-15.052 96.09-29.226 144.787-41.41 61.78-15.458 124.208-28.33 186.784-40.159 26.046-4.923 52.985-8.485 78.482-12.815-8.033-9.843-16.768-18.926-24.874-28.626-16.404-19.628-32.93-39.201-48.07-59.82-24.298-33.092-47.285-67.21-68.501-102.357-16.993-28.151-32.476-57.23-46.982-86.74-13.283-27.021-25.613-54.548-36.615-82.576-10.51-26.773-19.671-54.087-28.026-81.61-7.742-25.504-14.448-51.333-20.452-77.302-5.86-25.342-11.28-50.825-15.18-76.541-4.562-30.075-7.683-60.393-9.588-90.752-2.079-33.135-2.972-66.394-1.998-99.579 1.185-40.347 3.962-80.739 9.528-120.717 5.536-39.767 13.977-79.14 23.68-118.101 7.739-31.072 17.096-61.759 27.496-92.043 8.752-25.489 18.664-50.592 29.331-75.34 12.654-29.36 26.275-58.331 41.083-86.665 14.676-28.08 30.52-55.572 47.272-82.466 18.362-29.479 37.756-58.347 58.279-86.363 16.839-22.988 34.783-45.169 53.14-66.963 13.757-16.331 28.129-32.144 42.683-47.768 8.973-9.633 19.582-18.838 27.513-28.334" style="opacity:1;fill:#ffc100;stroke-width:0;fill-opacity:1"/><path d="M0 4240c289.322-228.088 700.946-406.864 1102-426h2239c108.168-97.037 203.63-194.974 296.133-301.085 77.328-88.703 149.972-181.874 215.576-279.568 80.935-120.524 152.345-247.521 218.614-376.692 17.017-33.17 31.13-67.759 45.827-102.02 8.433-19.66 16.61-39.436 24.296-59.4 13.857-35.988 27.228-72.187 39.325-108.805 13.003-39.363 24.982-79.085 35.72-119.126 10.582-39.462 19.961-79.261 28.262-119.265 6.887-33.19 12.772-66.596 17.858-100.11 5.017-33.052 9.12-66.252 12.477-99.515 2.858-28.324 4.95-56.73 6.522-85.155 1.834-33.15 3.344-66.345 3.39-99.547.044-32.405-1.394-64.805-3.041-97.169a1463 1463 0 0 0-3.972-56.31c-2.87-32.005-6.184-63.983-10.438-95.835-3.944-29.528-8.74-58.945-13.98-88.271a2295 2295 0 0 0-17.669-88.705c-7.256-33.027-15.244-65.898-23.713-98.635a2424 2424 0 0 0-22.352-80.658c-6.685-22.594-13.815-45.057-21.227-67.423-7.117-21.475-14.661-42.807-22.317-64.096-10.109-28.11-20.34-56.18-31.181-84.016-9.671-24.83-19.907-49.44-30.204-74.019-10.929-26.089-21.94-52.15-33.512-77.96-8.783-19.589-18.031-38.967-27.257-58.351-11.21-23.55-22.38-47.124-34.138-70.404-12.668-25.082-25.886-49.885-39.217-74.621-10.112-18.763-20.386-37.44-30.923-55.967-15.508-27.268-31.251-54.408-47.53-81.222a2586 2586 0 0 0-43.703-69.426c-17.692-27.16-36.237-53.753-54.337-80.643-6.372-9.467-12.519-19.089-19.103-28.41-12.488-17.682-25.727-34.821-38.674-52.17-16.07-21.53-31.858-43.28-48.416-64.437-11.393-14.559-23.267-28.736-35.032-42.996-13.52-16.387-27.038-32.778-40.86-48.91-12.81-14.95-25.875-29.68-38.985-44.37-17.732-19.867-35.368-39.83-53.656-59.187-28.39-30.05-57.615-59.309-87.012-88.375-15.942-15.762-32.207-31.195-48.457-46.638C3355.448 16.27 3338 0 3338 0c13.682 38.669 29.235 75.196 42.416 113.31 13.04 37.706 25.336 75.695 36.253 114.069 17.523 61.59 34 123.567 46.9 186.288 15.011 72.978 26.474 146.726 35.408 220.694 5.505 45.578 9.161 91.408 11.187 137.272 2.217 50.18 3.175 100.5 1.051 150.685-2.964 70.06-8.306 140.219-19.234 209.483-11.55 73.21-27.852 145.834-48.828 216.918-17.904 60.671-40.059 120.196-65.516 178.105-22.802 51.867-49.234 102.198-77.869 151.087-34.067 58.164-71.653 114.331-111.464 168.725-36.84 50.334-76.852 98.332-117.637 145.526-27.534 31.86-56.504 62.468-85.699 92.813a1653 1653 0 0 1-47.594 47.483c-26.363 25.26-53.05 50.21-80.6 74.167-40.966 35.624-82.281 70.99-125.85 103.377-54.885 40.798-111.35 79.762-170.388 114.279-70.835 41.414-144.186 78.951-219.766 110.895-32.534 13.75-66.493 23.9-100.161 34.579-14.329 4.545-28.725 8.933-43.317 12.544-47.305 11.706-95.499 19.479-143.186 29.515-30.954 6.515-62.045 12.453-92.78 19.93-36.15 8.792-72.048 18.657-107.697 29.3-29.19 8.714-58.113 18.322-86.902 28.278-34.835 12.046-69.53 24.54-103.824 38.05-24.936 9.825-49.536 20.492-74.078 31.262-25.818 11.331-51.501 22.978-76.96 35.091-22.093 10.51-43.939 21.534-65.755 32.606-25.973 13.183-51.886 26.494-77.549 40.273-25.2 13.53-50.133 27.559-75.038 41.628-23.558 13.31-47.058 26.728-70.363 40.476-27.363 16.14-54.588 32.52-81.553 49.316-31.216 19.443-62.276 39.153-92.871 59.56-38.927 25.963-77.254 52.827-115.362 79.978-35.083 24.996-69.989 50.26-104.279 76.333-31.373 23.856-62.447 48.13-92.8 73.271-35.759 29.616-70.737 60.183-105.167 91.333-27.067 24.488-53.723 49.45-79.691 75.1a2558 2558 0 0 0-83.55 86.495c-30.099 32.664-59.557 65.944-87.963 100.09-28.914 34.753-56.669 70.474-83.888 106.571-25.069 33.244-49.554 66.946-73.12 101.271-22.198 32.332-43.603 65.219-64.275 98.547-22.258 35.885-43.563 72.367-64.307 109.148-15.117 26.804-29.571 53.98-43.822 81.253a2311 2311 0 0 0-27.8 54.946C14.927 4207.843 8.104 4224.25 0 4240" style="opacity:1;fill:#ffc100;stroke-width:0;fill-opacity:1"/></svg>