<?xml version="1.0" encoding="UTF-8" standalone="no"?>
<svg
   viewBox="0 0 126 126"
   version="1.1"
   id="svg5"
   sodipodi:docname="st_vh_m103.svg"
   xml:space="preserve"
   inkscape:version="1.4 (86a8ad7, 2024-10-11)"
   xmlns:inkscape="http://www.inkscape.org/namespaces/inkscape"
   xmlns:sodipodi="http://sodipodi.sourceforge.net/DTD/sodipodi-0.dtd"
   xmlns="http://www.w3.org/2000/svg"
   xmlns:svg="http://www.w3.org/2000/svg"><defs
     id="defs5" /><sodipodi:namedview
     id="namedview5"
     pagecolor="#ffffff"
     bordercolor="#000000"
     borderopacity="0.25"
     inkscape:showpageshadow="2"
     inkscape:pageopacity="0.0"
     inkscape:pagecheckerboard="0"
     inkscape:deskcolor="#d1d1d1"
     inkscape:zoom="8"
     inkscape:cx="52"
     inkscape:cy="64.1875"
     inkscape:window-width="2560"
     inkscape:window-height="1369"
     inkscape:window-x="-8"
     inkscape:window-y="-8"
     inkscape:window-maximized="1"
     inkscape:current-layer="svg5" /><g
     fill-rule="evenodd"
     id="g2"
     style="display:inline"
     inkscape:label="car"><path
       d="m 89.28,113.34 c -7.359,0 -6.5,-7.317 -6.5,-7.317 h 13.004 c 0,0 0.856,7.317 -6.504,7.317 z M 30.746,80.054088 70.58,80.008 l 8.13,8.943 h 17.074 v 13.007 H 30.746 Z M 43.757,106.023 c 0,0 0.855,7.317 -6.5,7.317 -7.355,0 -6.5,-7.317 -6.5,-7.317 h 12.996 z"
       fill="#49adc9"
       id="path1"
       style="display:inline"
       inkscape:label="path1"
       sodipodi:nodetypes="sccsccccccccsccc" /><path
       d="M 84.867,48.56 H 77.723 L 74.547,51 H 42 V 37.989 h 32.547 l 3.175,2.44 h 7.145 l 7.144,4.066 z"
       fill="#ffffff"
       id="path2"
       style="display:none" /></g><g
     id="g8"
     inkscape:label="hmg"
     style="display:none"><path
       d="m 33,38 h 5 v 13 h -5 z"
       fill="#ffffff"
       id="path3" /><path
       d="M 84.867,31.56 H 77.723 L 74.547,34 H 42 V 20.989 h 32.547 l 3.175,2.44 h 7.145 l 7.144,4.066 z"
       fill-rule="evenodd"
       fill="#ffffff"
       id="path4" /><path
       d="m 33,21 h 5 v 13 h -5 z"
       fill="#ffffff"
       id="path5" /></g><g
     style="clip-rule:evenodd;display:inline;opacity:1;fill-rule:evenodd;stroke-linejoin:round;stroke-miterlimit:2"
     id="g5"
     transform="matrix(0.54259306,0,0,0.54259306,-6.1221829,-6.7839962)"><g
       transform="translate(-276,-306)"
       id="g7">
    <path
   style="display:inline;opacity:1;fill:none"
   d="M 276,306 H 532 V 562 H 276 Z"
   id="path1-2" />
    <clipPath
   id="a">
      <path
   d="M 276,306 H 532 V 562 H 276 Z"
   id="path2-4" />
    </clipPath>
    <g
   clip-path="url(#a)"
   id="g6">
      <path
   style="display:none;fill:#011419"
   transform="translate(0,306)"
   d="M 276,0 H 532 V 256 H 276 Z"
   id="path3-5" />
      <path
   d="m 388,454 -4,4 h -15 v -16 h 15 l 4,4 h 28 v 8 z"
   style="display:inline;fill:#49adc9;fill-opacity:1"
   id="path4-5"
   sodipodi:nodetypes="ccccccccc" />
      <path
   d="M 2366.333,1823 H 2380 v 41 h -41 v -41 h 13.667 v 13.667 h 13.666 z m -23.428,44.905 h 13.666 v 41 h -41 v -41 h 13.667 v 13.666 h 13.667 z m 46.857,0 h 13.667 v 41 h -41 v -41 h 13.666 v 13.666 h 13.667 z"
   style="display:inline;fill:#ffffff;fill-opacity:1"
   transform="matrix(1.02439,0,0,1.02439,-2013.049,-1531.463)"
   id="path5-1" />
      <path
   d="M 276,306 V 562.00005 H 532 V 306 Z M 518,548.00538 H 290 V 319.99467 h 228 z"
   style="display:none;fill:#55b9d2;stroke-width:4.13118"
   id="path6" />
    </g>
  </g></g></svg>
